<svg width="184" height="59" viewBox="0 0 184 59" fill="none" xmlns="http://www.w3.org/2000/svg">
<path d="M71.3164 20.6328H80.0331C86.2537 20.6328 89.973 24.4071 89.973 30.6825C89.973 37.3274 86.1938 40.902 80.0331 40.902H71.3164V20.6328ZM76.5984 36.3639H79.0946C83.0885 36.279 84.6911 34.7164 84.6911 30.6526C84.6911 26.9382 82.729 25.1609 79.0946 25.1609H76.5984V36.3639Z" fill="#2271B3"/>
<path d="M92.8789 20.6328H98.1609V40.902H92.8789V20.6328Z" fill="#2271B3"/>
<path d="M120.53 40.9181H117.125L116.811 38.7065C115.448 40.6635 112.982 41.3475 111.164 41.3475C104.999 41.3475 101.055 36.6596 101.055 30.7836C101.055 24.9075 104.999 20.2246 111.164 20.2246C115.363 20.2246 119.876 22.4362 120.33 27.5485H115.053C114.854 25.8161 113.206 24.7677 111.059 24.7677C107.65 24.7677 106.347 27.7632 106.347 30.7836C106.347 33.804 107.65 36.8044 111.059 36.8044C113.67 36.8044 115.403 35.5812 115.717 33.739H112.023V29.82H120.54L120.53 40.9181Z" fill="#2271B3"/>
<path d="M123.914 20.6328H129.196V40.902H123.914V20.6328Z" fill="#2271B3"/>
<path d="M148.929 25.1909H142.879V40.9169H137.602V25.1909H131.551V20.6328H148.929V25.1909Z" fill="#2271B3"/>
<path d="M154.149 20.6328H159.516L167.099 40.902H161.607L160.354 37.2725H153.27L151.992 40.902H146.57L154.149 20.6328ZM154.493 33.3534H159.091L156.85 26.2543H156.79L154.493 33.3534Z" fill="#2271B3"/>
<path d="M168.633 20.6328H173.915V36.3639H183.37V40.902H168.633V20.6328Z" fill="#2271B3"/>
<path d="M0 45.8594H9.07619V48.4304H3.21011V50.9516H8.2824V53.4478H3.21011V58.1906H0V45.8594Z" fill="#2271B3"/>
<path d="M10.5395 45.8594H16.815C18.9717 45.8594 21.1284 46.8579 21.1284 49.3541C21.1675 50.0054 21.0023 50.6528 20.656 51.2058C20.3097 51.7589 19.7994 52.1901 19.1963 52.4394V52.4743C20.4894 52.8038 20.9037 54.2516 20.9886 55.4248C21.0435 55.959 21.0785 57.7163 21.4878 58.2006H18.3127C18.0381 57.7712 18.0031 56.598 17.9532 56.2336C17.8683 54.9905 17.6786 53.7374 16.1609 53.7374H13.7296V58.2305H10.5195L10.5395 45.8594ZM13.7496 51.2062H16.4355C17.4041 51.2062 17.9333 50.707 17.9333 49.7584C17.9333 48.8099 17.2044 48.4304 16.3107 48.4304H13.7596L13.7496 51.2062Z" fill="#2271B3"/>
<path d="M22.9922 45.8594H26.1973V58.1756H22.9922V45.8594Z" fill="#2271B3"/>
<path d="M28.4219 45.8594H38.2369V48.4304H31.627V50.5872H37.6678V53.0834H31.627V55.4298H38.4067V58.1906H28.4219V45.8594Z" fill="#2271B3"/>
<path d="M40.2344 45.8594H45.5313C49.3056 45.8594 51.5671 48.1559 51.5671 51.9651C51.5671 56.0039 49.2706 58.1756 45.5313 58.1756H40.2344V45.8594ZM43.4445 55.4148H44.9422C47.3735 55.3649 48.337 54.4163 48.337 51.9501C48.337 49.6885 47.1488 48.6202 44.9422 48.6202H43.4445V55.4148Z" fill="#2271B3"/>
<path d="M53.3438 45.8594H59.6192C61.7759 45.8594 63.9326 46.8579 63.9326 49.3541C63.9702 50.0052 63.8045 50.6519 63.4583 51.2046C63.1122 51.7574 62.6028 52.1889 62.0006 52.4394V52.4743C63.2936 52.8038 63.708 54.2516 63.7928 55.4248C63.8478 55.959 63.8777 57.7163 64.2921 58.2006H61.1169C60.8423 57.7712 60.8074 56.598 60.7575 56.2336C60.6676 54.9905 60.4779 53.7374 58.9602 53.7374H56.5289V58.2305H53.3438V45.8594ZM56.5489 51.2062H59.2398C59.4391 51.2369 59.6429 51.2211 59.8351 51.1599C60.0273 51.0988 60.2028 50.9941 60.3478 50.8539C60.4928 50.7137 60.6035 50.5419 60.6711 50.3518C60.7387 50.1618 60.7614 49.9587 60.7375 49.7584C60.7375 48.8448 60.0136 48.4304 59.12 48.4304H56.5638L56.5489 51.2062Z" fill="#2271B3"/>
<path d="M65.7734 45.8594H68.9786V58.1756H65.7734V45.8594Z" fill="#2271B3"/>
<path d="M79.3801 50.2586C79.1904 49.0205 78.2568 48.3615 76.8839 48.3615C74.8121 48.3615 74.0183 50.1737 74.0183 52.0209C74.0183 53.8681 74.8121 55.6754 76.8839 55.6754C77.2013 55.7085 77.5221 55.6741 77.8252 55.5744C78.1283 55.4747 78.4069 55.312 78.6427 55.097C78.8784 54.882 79.066 54.6195 79.1931 54.3268C79.3202 54.0341 79.384 53.7179 79.3801 53.3988H82.5902C82.4005 56.589 80.094 58.4361 76.9638 58.4361C73.2245 58.4361 70.8281 55.5905 70.8281 52.0209C70.8281 48.4514 73.2245 45.5957 76.9638 45.5957C79.6397 45.5957 82.5004 47.2831 82.5902 50.2486L79.3801 50.2586Z" fill="#2271B3"/>
<path d="M84.2578 45.8594H87.4679V50.3525H91.6915V45.8594H94.9016V58.1756H91.6915V53.0834H87.4679V58.1756H84.2578V45.8594Z" fill="#2271B3"/>
<path d="M102.469 45.8594H105.764L110.037 53.4478H110.072V45.8594H113.093V58.1756H109.798L105.519 50.5023H105.484V58.1756H102.489L102.469 45.8594Z" fill="#2271B3"/>
<path d="M115.281 45.8594H118.491V58.1756H115.281V45.8594Z" fill="#2271B3"/>
<path d="M120.711 45.8594H130.526V48.4304H123.921V50.5872H129.957V53.0834H123.921V55.4298H130.726V58.1906H120.741L120.711 45.8594Z" fill="#2271B3"/>
<path d="M132.543 45.8594H137.266L139.388 54.0818H139.422L141.544 45.8693H146.272V58.1756H143.252V48.8298H143.207L140.621 58.1756H138.174L135.583 48.8298H135.548V58.1756H132.553L132.543 45.8594Z" fill="#2271B3"/>
<path d="M151.842 45.8594H155.102L159.685 58.1756H156.34L155.581 55.969H151.288L150.514 58.1756H147.219L151.842 45.8594ZM152.051 53.5876H154.842L153.479 49.2792H153.444L152.051 53.5876Z" fill="#2271B3"/>
<path d="M160.602 45.8594H163.897L168.17 53.4478H168.205V45.8594H171.225V58.1756H167.93L163.677 50.5023H163.642V58.1756H160.646L160.602 45.8594Z" fill="#2271B3"/>
<path d="M173.379 45.8594H176.659L180.937 53.4478H180.972V45.8594H183.968V58.1756H180.678L176.399 50.5023H176.364V58.1756H173.344L173.379 45.8594Z" fill="#2271B3"/>
<path d="M65.8394 7.883V0.209681H62.0002H53.3184H49.4792V7.883H53.3184V26.4697L41.9357 7.883L37.2379 0.209681L37.1081 0V0.209681H28.4313H28.2466H12.2209H3.53916H0.109375V7.883H3.53916V33.8036H0.109375V41.4769H16.4645V33.8036H12.2209V23.7738H16.4645V27.8476H24.1378V15.2568V11.4875H16.4645V15.092H12.2209V7.883H28.4313V33.8036H28.3614H24.5921V41.4769H40.9522V33.8036H37.1081V14.6926L48.2611 32.9049L49.4792 34.9019L53.3184 41.1674L53.5031 41.4769H61.6957H62.0002H65.8394V33.8036H62.0002V7.883H65.8394Z" fill="#2271B3"/>
</svg>
