<svg width="25" height="28" viewBox="0 0 25 28" fill="none" xmlns="http://www.w3.org/2000/svg">
<path d="M22.9417 25.7212V23.0075C22.9434 22.2954 22.8046 21.5899 22.5333 20.9315C22.2619 20.2731 21.8634 19.6747 21.3605 19.1705C20.8575 18.6664 20.26 18.2664 19.6023 17.9935C18.9445 17.7206 18.2394 17.5801 17.5273 17.5801H6.71132C5.99919 17.5801 5.29408 17.7206 4.63632 17.9935C3.97856 18.2664 3.38107 18.6664 2.87812 19.1705C2.37517 19.6747 1.97664 20.2731 1.7053 20.9315C1.43397 21.5899 1.29518 22.2954 1.29689 23.0075V25.7212" stroke="#2271B3" stroke-width="2" stroke-linecap="round" stroke-linejoin="round"/>
<path d="M12.1124 12.1536C13.1869 12.1588 14.2388 11.8448 15.1348 11.2516C16.0307 10.6584 16.7304 9.81252 17.1452 8.82125C17.5599 7.82998 17.6711 6.7379 17.4647 5.68338C17.2582 4.62885 16.7433 3.65934 15.9853 2.8977C15.2274 2.13606 14.2603 1.61657 13.2068 1.40503C12.1533 1.1935 11.0607 1.29946 10.0674 1.70947C9.0742 2.11949 8.22499 2.81511 7.62746 3.7082C7.02993 4.60129 6.71095 5.65166 6.71094 6.7262C6.71092 8.16116 7.27919 9.53773 8.29142 10.5548C9.30365 11.5719 10.6775 12.1468 12.1124 12.1536Z" stroke="#2271B3" stroke-width="2.2" stroke-linecap="round" stroke-linejoin="round"/>
</svg>
