<svg width="30" height="29" viewBox="0 0 30 29" fill="none" xmlns="http://www.w3.org/2000/svg">
<path d="M15.2253 1.36306L18.9388 8.88097C18.9823 8.97553 19.0493 9.05738 19.1334 9.11874C19.2175 9.1801 19.3159 9.21893 19.4192 9.23154L27.7162 10.4391C27.8383 10.4545 27.9535 10.5044 28.0484 10.5829C28.1432 10.6613 28.2138 10.7651 28.2519 10.8822C28.2901 10.9992 28.2941 11.1247 28.2636 11.2439C28.2331 11.3632 28.1694 11.4713 28.0798 11.5557L22.081 17.4117C22.0056 17.4846 21.9486 17.5745 21.9148 17.6738C21.8809 17.7732 21.8711 17.8791 21.8862 17.983L23.3145 26.254C23.3316 26.3732 23.3159 26.4949 23.2689 26.6059C23.222 26.7169 23.1456 26.813 23.0481 26.8838C22.9506 26.9546 22.8355 26.9975 22.7155 27.0077C22.5954 27.018 22.4748 26.9953 22.3667 26.9421L14.9397 23.0468C14.8443 23.0017 14.74 22.9784 14.6345 22.9784C14.529 22.9784 14.4248 23.0017 14.3294 23.0468L6.91535 26.9421C6.80765 27.0005 6.68563 27.0272 6.5634 27.0192C6.44117 27.0111 6.32373 26.9687 6.22461 26.8967C6.12548 26.8247 6.04872 26.7262 6.00322 26.6124C5.95773 26.4987 5.94537 26.3744 5.96752 26.254L7.3828 17.983C7.40018 17.879 7.39148 17.7725 7.35748 17.6727C7.32349 17.573 7.26528 17.4833 7.18805 17.4117L1.18927 11.5557C1.10452 11.4693 1.04514 11.3612 1.0175 11.2434C0.989859 11.1255 0.995035 11.0023 1.03252 10.8872C1.07 10.7721 1.13835 10.6694 1.23009 10.5904C1.32182 10.5114 1.43342 10.4591 1.55283 10.4391L9.84981 9.23154C9.95434 9.21758 10.0539 9.17836 10.1399 9.11727C10.2258 9.05619 10.2956 8.97509 10.3432 8.88097L14.0438 1.36306C14.0991 1.25385 14.1835 1.1621 14.2878 1.09801C14.3921 1.03392 14.5121 1 14.6345 1C14.7569 1 14.877 1.03392 14.9812 1.09801C15.0855 1.1621 15.17 1.25385 15.2253 1.36306Z" stroke="#2271B3" stroke-width="2" stroke-miterlimit="10"/>
</svg>
