<svg width="30" height="31" viewBox="0 0 30 31" fill="none" xmlns="http://www.w3.org/2000/svg">
<path d="M11.2203 27.5148C11.4771 27.5148 11.7282 27.4387 11.9417 27.296C12.1552 27.1533 12.3216 26.9505 12.4199 26.7133C12.5181 26.476 12.5439 26.215 12.4938 25.9631C12.4437 25.7112 12.32 25.4799 12.1384 25.2983C11.9568 25.1167 11.7255 24.993 11.4736 24.9429C11.2217 24.8928 10.9607 24.9185 10.7234 25.0168C10.4862 25.1151 10.2834 25.2815 10.1407 25.495C9.99801 25.7086 9.92188 25.9596 9.92188 26.2164C9.92188 26.5608 10.0587 26.891 10.3022 27.1345C10.5457 27.378 10.8759 27.5148 11.2203 27.5148Z" stroke="#2271B3" stroke-width="2" stroke-linecap="round" stroke-linejoin="round"/>
<path d="M24.9195 27.5148C25.1763 27.5148 25.4274 27.4387 25.6409 27.296C25.8544 27.1533 26.0209 26.9505 26.1191 26.7133C26.2174 26.476 26.2431 26.215 26.193 25.9631C26.1429 25.7112 26.0192 25.4799 25.8376 25.2983C25.656 25.1167 25.4247 24.993 25.1728 24.9429C24.921 24.8928 24.6599 24.9185 24.4226 25.0168C24.1854 25.1151 23.9826 25.2815 23.8399 25.495C23.6972 25.7086 23.6211 25.9596 23.6211 26.2164C23.6211 26.5608 23.7579 26.891 24.0014 27.1345C24.2449 27.378 24.5752 27.5148 24.9195 27.5148Z" stroke="#2271B3" stroke-width="2" stroke-linecap="round" stroke-linejoin="round"/>
<path d="M1.24609 1.24609H6.23206L9.56903 17.9958C9.68899 18.5707 10.0002 19.0879 10.452 19.4631C10.9082 19.8278 11.478 20.0209 12.062 20.0084H24.1894C24.7734 20.0209 25.3432 19.8278 25.7994 19.4631C26.2511 19.0879 26.5624 18.5707 26.6823 17.9958L28.669 7.50452H7.47858" stroke="#2271B3" stroke-width="2" stroke-linecap="round" stroke-linejoin="round"/>
</svg>
