<svg width="29" height="28" viewBox="0 0 29 28" fill="none" xmlns="http://www.w3.org/2000/svg">
<path d="M28.0626 18.1821C28.0619 18.3341 28.0213 18.4833 27.9446 18.6157C27.868 18.748 27.7578 18.8591 27.6247 18.9382L14.3003 26.8772C14.1552 26.9634 13.9886 27.0089 13.8186 27.0089C13.6487 27.0089 13.4821 26.9634 13.337 26.8772L0.425437 18.9382C0.293796 18.8585 0.185495 18.747 0.110978 18.6145C0.0364598 18.4821 -0.00174957 18.3331 6.15121e-05 18.1821C0.000488652 18.0317 0.0410675 17.884 0.11785 17.7536C0.194633 17.6231 0.304979 17.5144 0.43796 17.4382L1.76414 16.6211L3.4031 17.6333L2.5023 18.1943L13.2744 24.8284C13.4389 24.9304 13.6299 24.9846 13.8249 24.9846C14.0199 24.9846 14.2108 24.9304 14.3754 24.8284L25.4728 18.1943L24.522 17.6211L26.1985 16.6211L27.5622 17.426C27.7062 17.4983 27.8281 17.6062 27.916 17.7389C28.0038 17.8716 28.0543 18.0244 28.0626 18.1821Z" fill="#2271B3"/>
<path d="M28.0607 13.4619C28.0613 13.6127 28.0226 13.7612 27.9482 13.8935C27.8738 14.0258 27.7661 14.1374 27.6353 14.218L26.1215 15.1204L25.7836 15.3277C24.8453 15.8887 23.882 16.4741 23.2189 16.8521L14.2984 22.157C14.1533 22.2432 13.9866 22.2888 13.8167 22.2888C13.6468 22.2888 13.4802 22.2432 13.3351 22.157L3.53878 16.1448L0.436037 14.2302C0.306955 14.1482 0.200905 14.0361 0.127496 13.9041C0.0540856 13.7721 0.015625 13.6243 0.015625 13.4741C0.015625 13.3239 0.0540856 13.1761 0.127496 13.0441C0.200905 12.9121 0.306955 12.8 0.436037 12.718L1.78723 11.9497L2.03747 12.096L3.42619 12.9619L2.51286 13.5107L2.72556 13.6448L6.47892 15.9497L13.3225 20.1448C13.4871 20.2468 13.678 20.301 13.873 20.301C14.068 20.301 14.259 20.2468 14.4235 20.1448L24.0696 14.3887L25.5209 13.5107L24.5701 12.9375L25.9713 12.096L26.2466 11.9375L27.6103 12.7424C27.7398 12.8175 27.8485 12.9223 27.927 13.0477C28.0055 13.1731 28.0514 13.3153 28.0607 13.4619Z" fill="#2271B3"/>
<path d="M27.5606 7.98591L14.2988 0.132249C14.1561 0.0458082 13.9914 0 13.8233 0C13.6553 0 13.4906 0.0458082 13.3479 0.132249L0.448896 7.97371C0.317255 8.05343 0.208954 8.1649 0.134436 8.29736C0.0599186 8.42981 0.0217093 8.57876 0.0235203 8.72981C0.0214116 8.87926 0.0595959 9.02662 0.134245 9.15716C0.208895 9.28771 0.317389 9.39687 0.448896 9.47372L1.54988 10.1566L1.675 10.242L2.41316 10.681L2.98866 11.0469L3.27643 11.2176L4.75274 12.1323L13.3479 17.4127C13.493 17.4989 13.6597 17.5445 13.8296 17.5445C13.9995 17.5445 14.1662 17.4989 14.3113 17.4127L19.2032 14.4859L22.1183 12.742H22.1933L24.6956 11.2542L25.0083 11.0835L25.3712 10.864L25.4838 10.7908L26.2094 10.364L27.6107 9.5225C27.7426 9.44259 27.8514 9.33123 27.9268 9.19893C28.0023 9.06663 28.0419 8.91776 28.0419 8.7664C28.0419 8.61503 28.0023 8.46617 27.9268 8.33387C27.8514 8.20157 27.7426 8.0902 27.6107 8.0103L27.5606 7.98591ZM25.2586 8.87616L23.8323 9.74201L23.2192 10.0957L14.3738 15.3762C14.208 15.4741 14.0173 15.5248 13.8233 15.5225C13.6298 15.5217 13.44 15.4712 13.2728 15.3762L10.2952 13.5469L8.44355 12.4005H8.35596C7.70538 11.9981 7.10484 11.5957 6.42923 11.181L4.99046 10.2786C4.84032 10.2054 4.55256 10.0225 4.40243 9.93713L4.11466 9.74201L2.72594 8.90055L2.51323 8.7664L13.2854 2.19323C13.4476 2.09744 13.6337 2.0468 13.8233 2.0468C14.013 2.0468 14.1991 2.09744 14.3613 2.19323L25.4712 8.7542L25.2586 8.87616Z" fill="#2271B3"/>
</svg>
